<svg id="Layer_2" data-name="Layer 2" xmlns="http://www.w3.org/2000/svg" xmlns:xlink="http://www.w3.org/1999/xlink" viewBox="0 0 748.61 945"><defs><style>.cls-1{fill:#fff;}.cls-1,.cls-11,.cls-13,.cls-15,.cls-17,.cls-19,.cls-21,.cls-3,.cls-5,.cls-7,.cls-9{fill-rule:evenodd;}.cls-2{mask:url(#mask);}.cls-3{fill:url(#linear-gradient);}.cls-4{mask:url(#mask-2);}.cls-5{fill:url(#linear-gradient-2);}.cls-6{mask:url(#mask-3);}.cls-7{fill:url(#linear-gradient-3);}.cls-8{mask:url(#mask-4);}.cls-9{fill:url(#linear-gradient-4);}.cls-10{mask:url(#mask-5);}.cls-11{fill:url(#linear-gradient-5);}.cls-12{mask:url(#mask-6);}.cls-13{fill:url(#linear-gradient-6);}.cls-14{mask:url(#mask-7);}.cls-15{fill:url(#linear-gradient-7);}.cls-16{mask:url(#mask-8);}.cls-17{fill:url(#linear-gradient-8);}.cls-18{mask:url(#mask-9);}.cls-19{fill:url(#linear-gradient-9);}.cls-20{mask:url(#mask-10);}.cls-21{fill:url(#linear-gradient-10);}</style><mask id="mask" x="0" y="0" width="748.61" height="945" maskUnits="userSpaceOnUse"><g transform="translate(-164.77 -67.53)"><g id="q"><path id="j" class="cls-1" d="M226.47,67.54c-34,0-61.7,28.38-61.7,63.28V949.24c0,34.62,27.24,62.84,60.88,63.29H852.49c33.65-.45,60.89-28.67,60.89-63.29v-675h0a21.24,21.24,0,0,0-6-14.9l-181-185.64a20.35,20.35,0,0,0-14.55-6.16H226.47ZM205.9,949.25V130.83c0-11.63,9.23-21.09,20.57-21.09H691.25V217c.35,40.63,30.7,74,69.4,78l41.14.4h70.43v653.9c0,11.64-9.23,21.11-20.57,21.11H226.49c-11.34,0-20.57-9.47-20.57-21.11Zm526.49-733v-76.7L843.14,253.17H768.38C748.52,253.17,732.39,236.61,732.39,216.26Z"/></g></g></mask><linearGradient id="linear-gradient" x1="233.11" y1="936.28" x2="237" y2="932.35" gradientTransform="matrix(125.92, 0, 0, -154.98, -29231.75, 145204.33)" gradientUnits="userSpaceOnUse"><stop offset="0" stop-color="#1297ff"/><stop offset="1" stop-color="#003fff"/></linearGradient><mask id="mask-2" x="111.91" y="107.23" width="257.42" height="264.03" maskUnits="userSpaceOnUse"><g transform="translate(-164.77 -67.53)"><g id="l"><path id="b" class="cls-1" d="M276.68,306.77c0,72.8,57.74,132,128.7,132s128.72-59.22,128.72-132-57.74-132-128.72-132-128.7,59.22-128.7,132m41.13,0c0-49.53,39.29-89.82,87.57-89.82S493,257.24,493,306.77s-39.29,89.83-87.58,89.83-87.57-40.3-87.57-89.83"/></g></g></mask><linearGradient id="linear-gradient-2" x1="232.59" y1="938.78" x2="243.93" y2="924.69" gradientTransform="matrix(43.3, 0, 0, -43.3, -9879.38, 40691.32)" xlink:href="#linear-gradient"/><mask id="mask-3" x="111.56" y="438.76" width="535.74" height="42.18" maskUnits="userSpaceOnUse"><g transform="translate(-164.77 -67.53)"><g id="k"><path id="a" class="cls-1" d="M296.9,506.29a20.83,20.83,0,0,0-20.56,21.09c0,11.64,9.2,21.09,20.56,21.09H791.51a21.1,21.1,0,0,0,0-42.18Z"/></g></g></mask><linearGradient id="linear-gradient-3" x1="233.03" y1="959.04" x2="238.52" y2="870.11" gradientTransform="matrix(90.12, 0, 0, -6.92, -20834.61, 6691.2)" xlink:href="#linear-gradient"/><mask id="mask-4" x="416.97" y="222" width="220.05" height="42.18" maskUnits="userSpaceOnUse"><g transform="translate(-164.77 -67.53)"><g id="t"><path id="i" class="cls-1" d="M602.31,289.53a20.83,20.83,0,0,0-20.57,21.08c0,11.65,9.21,21.1,20.57,21.1H781.23c11.36,0,20.57-9.45,20.57-21.1a20.83,20.83,0,0,0-20.57-21.08Z"/></g></g></mask><linearGradient id="linear-gradient-4" x1="235.49" y1="976.85" x2="248.86" y2="888.03" gradientTransform="matrix(37.01, 0, 0, -6.92, -8357.37, 6654.72)" xlink:href="#linear-gradient"/><mask id="mask-5" x="416.97" y="331.69" width="220.05" height="42.18" maskUnits="userSpaceOnUse"><g transform="translate(-164.77 -67.53)"><g id="s"><path id="h" class="cls-1" d="M602.31,399.22a20.83,20.83,0,0,0-20.57,21.08c0,11.65,9.21,21.1,20.57,21.1H781.23c11.36,0,20.57-9.45,20.57-21.1a20.83,20.83,0,0,0-20.57-21.08Z"/></g></g></mask><linearGradient id="linear-gradient-5" x1="234.05" y1="973.19" x2="247.41" y2="884.36" gradientTransform="matrix(37.01, 0, 0, -6.92, -8357.37, 6672.71)" xlink:href="#linear-gradient"/><mask id="mask-6" x="111.56" y="548.44" width="546.02" height="42.19" maskUnits="userSpaceOnUse"><g transform="translate(-164.77 -67.53)"><g id="r"><path id="g" class="cls-1" d="M296.9,616c-11.36,0-20.56,9.45-20.56,21.1s9.2,21.09,20.56,21.09H801.8c11.35,0,20.56-9.45,20.56-21.09S813.15,616,801.8,616Z"/></g></g></mask><linearGradient id="linear-gradient-6" x1="232.5" y1="955.77" x2="237.89" y2="866.84" gradientTransform="matrix(91.85, 0, 0, -6.92, -21239.2, 6710.13)" xlink:href="#linear-gradient"/><mask id="mask-7" x="111.56" y="658.14" width="220.06" height="42.19" maskUnits="userSpaceOnUse"><g transform="translate(-164.77 -67.53)"><g id="p"><path id="f" class="cls-1" d="M296.9,725.67c-11.36,0-20.56,9.45-20.56,21.1a20.82,20.82,0,0,0,20.56,21.09H475.83a20.83,20.83,0,0,0,20.57-21.09c0-11.65-9.21-21.1-20.57-21.1Z"/></g></g></mask><linearGradient id="linear-gradient-7" x1="226.21" y1="940.23" x2="239.57" y2="851.42" gradientTransform="matrix(37.02, 0, 0, -6.92, -8408.98, 6728.12)" xlink:href="#linear-gradient"/><mask id="mask-8" x="111.56" y="767.83" width="220.06" height="42.19" maskUnits="userSpaceOnUse"><g transform="translate(-164.77 -67.53)"><g id="o"><path id="e" class="cls-1" d="M296.9,835.36c-11.36,0-20.56,9.45-20.56,21.1a20.83,20.83,0,0,0,20.56,21.09H475.83a20.83,20.83,0,0,0,20.57-21.09c0-11.65-9.21-21.1-20.57-21.1Z"/></g></g></mask><linearGradient id="linear-gradient-8" x1="224.77" y1="936.56" x2="238.13" y2="847.76" gradientTransform="matrix(37.02, 0, 0, -6.92, -8408.98, 6746.11)" xlink:href="#linear-gradient"/><mask id="mask-9" x="404.74" y="656.92" width="244.51" height="150.64" maskUnits="userSpaceOnUse"><g transform="translate(-164.77 -67.53)"><g id="n"><path id="d" class="cls-1" d="M591.44,724.45c-12.11,0-21.93,10.06-21.93,22.48V852.6c0,12.42,9.82,22.49,21.93,22.49H792.09C804.2,875.09,814,865,814,852.6V746.93c0-12.42-9.82-22.48-21.93-22.48ZM610.65,832.9H772.9V766.63H610.65Z"/></g></g></mask><linearGradient id="linear-gradient-9" x1="229.67" y1="942.37" x2="241.64" y2="917.62" gradientTransform="matrix(41.13, 0, 0, -24.7, -9322.1, 23375.61)" xlink:href="#linear-gradient"/><mask id="mask-10" x="416.97" y="112.31" width="81.93" height="42.19" maskUnits="userSpaceOnUse"><g transform="translate(-164.77 -67.53)"><g id="m"><path id="c" class="cls-1" d="M602.31,179.83a21.1,21.1,0,0,0,0,42.19h40.8a21.1,21.1,0,0,0,0-42.19Z"/></g></g></mask><linearGradient id="linear-gradient-10" x1="238.93" y1="975.42" x2="274.75" y2="886.81" gradientTransform="matrix(13.78, 0, 0, -6.92, -2920.85, 6638.6)" xlink:href="#linear-gradient"/></defs><title>lp_feature_icon-workbook</title><g class="cls-2"><path class="cls-3" d="M226.47,67.54c-34,0-61.7,28.38-61.7,63.28V949.24c0,34.62,27.24,62.84,60.88,63.29H852.49c33.65-.45,60.89-28.67,60.89-63.29v-675h0a21.24,21.24,0,0,0-6-14.9l-181-185.64a20.35,20.35,0,0,0-14.55-6.16H226.47ZM205.9,949.25V130.83c0-11.63,9.23-21.09,20.57-21.09H691.25V217c.35,40.63,30.7,74,69.4,78l41.14.4h70.43v653.9c0,11.64-9.23,21.11-20.57,21.11H226.49c-11.34,0-20.57-9.47-20.57-21.11Zm526.49-733v-76.7L843.14,253.17H768.38C748.52,253.17,732.39,236.61,732.39,216.26Z" transform="translate(-164.77 -67.53)"/></g><g class="cls-4"><path class="cls-5" d="M276.68,306.77c0,72.8,57.74,132,128.7,132s128.72-59.22,128.72-132-57.74-132-128.72-132-128.7,59.22-128.7,132m41.13,0c0-49.53,39.29-89.82,87.57-89.82S493,257.24,493,306.77s-39.29,89.83-87.58,89.83-87.57-40.3-87.57-89.83" transform="translate(-164.77 -67.53)"/></g><g class="cls-6"><path class="cls-7" d="M296.9,506.29a20.83,20.83,0,0,0-20.56,21.09c0,11.64,9.2,21.09,20.56,21.09H791.51a21.1,21.1,0,0,0,0-42.18Z" transform="translate(-164.77 -67.53)"/></g><g class="cls-8"><path class="cls-9" d="M602.31,289.53a20.83,20.83,0,0,0-20.57,21.08c0,11.65,9.21,21.1,20.57,21.1H781.23c11.36,0,20.57-9.45,20.57-21.1a20.83,20.83,0,0,0-20.57-21.08Z" transform="translate(-164.77 -67.53)"/></g><g class="cls-10"><path class="cls-11" d="M602.31,399.22a20.83,20.83,0,0,0-20.57,21.08c0,11.65,9.21,21.1,20.57,21.1H781.23c11.36,0,20.57-9.45,20.57-21.1a20.83,20.83,0,0,0-20.57-21.08Z" transform="translate(-164.77 -67.53)"/></g><g class="cls-12"><path class="cls-13" d="M296.9,616c-11.36,0-20.56,9.45-20.56,21.1s9.2,21.09,20.56,21.09H801.8c11.35,0,20.56-9.45,20.56-21.09S813.15,616,801.8,616Z" transform="translate(-164.77 -67.53)"/></g><g class="cls-14"><path class="cls-15" d="M296.9,725.67c-11.36,0-20.56,9.45-20.56,21.1a20.82,20.82,0,0,0,20.56,21.09H475.83a20.83,20.83,0,0,0,20.57-21.09c0-11.65-9.21-21.1-20.57-21.1Z" transform="translate(-164.77 -67.53)"/></g><g class="cls-16"><path class="cls-17" d="M296.9,835.36c-11.36,0-20.56,9.45-20.56,21.1a20.83,20.83,0,0,0,20.56,21.09H475.83a20.83,20.83,0,0,0,20.57-21.09c0-11.65-9.21-21.1-20.57-21.1Z" transform="translate(-164.77 -67.53)"/></g><g class="cls-18"><path class="cls-19" d="M591.44,724.45c-12.11,0-21.93,10.06-21.93,22.48V852.6c0,12.42,9.82,22.49,21.93,22.49H792.09C804.2,875.09,814,865,814,852.6V746.93c0-12.42-9.82-22.48-21.93-22.48ZM610.65,832.9H772.9V766.63H610.65Z" transform="translate(-164.77 -67.53)"/></g><g class="cls-20"><path class="cls-21" d="M602.31,179.83a21.1,21.1,0,0,0,0,42.19h40.8a21.1,21.1,0,0,0,0-42.19Z" transform="translate(-164.77 -67.53)"/></g></svg>