<svg id="Layer_2" data-name="Layer 2" xmlns="http://www.w3.org/2000/svg" xmlns:xlink="http://www.w3.org/1999/xlink" viewBox="0 0 878 943.04"><defs><style>.cls-1{fill:url(#New_Gradient_Swatch_1);}.cls-2{fill:url(#New_Gradient_Swatch_1-2);}</style><linearGradient id="New_Gradient_Swatch_1" x1="459.55" y1="446.81" x2="691.86" y2="809.81" gradientUnits="userSpaceOnUse"><stop offset="0" stop-color="#1297ff"/><stop offset="1" stop-color="#003fff"/></linearGradient><linearGradient id="New_Gradient_Swatch_1-2" x1="453.72" y1="450.54" x2="686.03" y2="813.54" xlink:href="#New_Gradient_Swatch_1"/></defs><title>lp_feature_icon_calendar</title><path class="cls-1" d="M914,133.52H778.47V88a19.51,19.51,0,0,0-39,0v45.53H559.51V88a19.51,19.51,0,0,0-39,0v45.53H340.55V88a19.51,19.51,0,1,0-39,0v45.53H166a65,65,0,0,0-65,65V946.48a65,65,0,0,0,65,65H914a65,65,0,0,0,65-65V198.56A65,65,0,0,0,914,133.52ZM166,172.54H301.53v71.54a19.51,19.51,0,1,0,39,0V172.54H520.49v71.54a19.51,19.51,0,0,0,39,0V172.54H739.45v71.54a19.51,19.51,0,0,0,39,0V172.54H914a26,26,0,0,1,26,26V333H140V198.56A26,26,0,0,1,166,172.54ZM914,972.5H166a26,26,0,0,1-26-26V372H940V946.48A26,26,0,0,1,914,972.5Z" transform="translate(-101 -68.48)"/><path class="cls-2" d="M698.64,510.55l-218.06,211L378.31,620.23A24.39,24.39,0,1,0,344,654.88L463.22,773a24.36,24.36,0,0,0,34.12.2L732.56,545.6a24.39,24.39,0,1,0-33.92-35.05Z" transform="translate(-101 -68.48)"/></svg>