<svg id="Layer_2" data-name="Layer 2" xmlns="http://www.w3.org/2000/svg" xmlns:xlink="http://www.w3.org/1999/xlink" viewBox="0 0 944 944"><defs><style>.cls-1{fill:url(#New_Gradient_Swatch_1);}.cls-2{fill:url(#New_Gradient_Swatch_1-2);}.cls-3{fill:url(#New_Gradient_Swatch_1-3);}</style><linearGradient id="New_Gradient_Swatch_1" x1="351.02" y1="336.76" x2="587.67" y2="591.27" gradientUnits="userSpaceOnUse"><stop offset="0" stop-color="#1297ff"/><stop offset="1" stop-color="#003fff"/></linearGradient><linearGradient id="New_Gradient_Swatch_1-2" x1="345.53" y1="341.86" x2="582.18" y2="596.37" xlink:href="#New_Gradient_Swatch_1"/><linearGradient id="New_Gradient_Swatch_1-3" x1="306.36" y1="378.28" x2="543.01" y2="632.79" xlink:href="#New_Gradient_Swatch_1"/></defs><title>lp_feature_icon_clock</title><path class="cls-1" d="M540,68C279.74,68,68,279.74,68,540s211.74,472,472,472,472-211.74,472-472S800.26,68,540,68Zm0,899.49c-235.72,0-427.49-191.77-427.49-427.49S304.28,112.51,540,112.51,967.49,304.28,967.49,540,775.72,967.49,540,967.49Z" transform="translate(-68 -68)"/><path class="cls-2" d="M878.93,390.12h0q-2.88-6.47-6-12.83a22,22,0,0,0-39.57,19.39c1.83,3.73,3.59,7.49,5.28,11.31a324.25,324.25,0,0,1,27.87,132.23c0,180-146.47,326.51-326.51,326.51S213.49,720.25,213.49,540.21A325.48,325.48,0,0,1,376.11,257.78l-4.3,16.45a19,19,0,0,0,13.61,23.23,19.16,19.16,0,0,0,23.21-13.59l16.23-62.07a19,19,0,0,0-13.59-23.23L349.2,182.34a19,19,0,0,0-9.63,36.83l10.54,2.75A370,370,0,0,0,169.42,540.21c0,204.33,166.24,370.58,370.58,370.58S910.58,744.54,910.58,540.21A368,368,0,0,0,878.93,390.12Z" transform="translate(-68 -68)"/><path class="cls-3" d="M488.86,518.24H338.6a18.19,18.19,0,1,0,0,36.38H488.86A58.48,58.48,0,0,0,526,591.71V790.3a18.19,18.19,0,0,0,36.38,0V591.71a58.2,58.2,0,1,0-73.47-73.47Zm55.28-3.64a21.83,21.83,0,1,1-21.83,21.83A21.86,21.86,0,0,1,544.14,514.6Z" transform="translate(-68 -68)"/></svg>